<?xml version="1.0" encoding="iso-8859-1"?>
<!-- Generator: Adobe Illustrator 19.1.0, SVG Export Plug-In . SVG Version: 6.00 Build 0)  -->
<svg version="1.1" id="Capa_1" xmlns="http://www.w3.org/2000/svg" xmlns:xlink="http://www.w3.org/1999/xlink" x="0px" y="0px"
	 viewBox="0 0 63.044 63.044" style="enable-background:new 0 0 63.044 63.044;" xml:space="preserve">
<g>
	<g id="group-10svg">
		<path id="path-1" d="M15.324,63.044c-6.782,0-12.299-5.521-12.299-12.308c0-4.51,2.443-8.623,6.392-10.79L47.631,1.705
			C48.731,0.605,50.192,0,51.747,0c1.554,0,3.015,0.605,4.115,1.705c2.268,2.271,2.268,5.966,0,8.236L23.897,41.929
			c2.357,2.302,3.726,5.486,3.726,8.807C27.623,57.523,22.105,63.044,15.324,63.044z M51.747,3.002
			c-0.753,0-1.461,0.293-1.995,0.826l-38.37,38.398c-0.107,0.107-0.23,0.198-0.364,0.268c-3.08,1.615-4.993,4.773-4.993,8.242
			c0,5.131,4.172,9.306,9.299,9.306s9.299-4.175,9.299-9.306c0-2.992-1.394-5.728-3.823-7.507c-0.353-0.258-0.576-0.659-0.609-1.096
			c-0.034-0.436,0.125-0.866,0.434-1.176L53.741,7.818c1.098-1.1,1.098-2.89,0-3.99C53.207,3.295,52.499,3.002,51.747,3.002z"/>
		<path id="path-2" d="M47.72,63.044c-6.781,0-12.299-5.521-12.299-12.308c0-3.265,1.269-6.324,3.528-8.615L6.791,9.941
			c-2.268-2.27-2.268-5.965,0-8.236C7.89,0.605,9.352,0,10.907,0c1.553,0,3.015,0.605,4.114,1.705L52.83,39.541
			c4.377,2.001,7.189,6.363,7.189,11.195C60.019,57.523,54.501,63.044,47.72,63.044z M10.907,3.002
			c-0.754,0-1.462,0.293-1.994,0.826c-1.099,1.1-1.099,2.89,0,3.99l33.282,33.306c0.304,0.305,0.464,0.727,0.436,1.158
			c-0.027,0.43-0.239,0.828-0.58,1.092c-2.306,1.782-3.63,4.466-3.63,7.362c0,5.131,4.172,9.306,9.299,9.306
			s9.299-4.175,9.299-9.306c0-3.728-2.215-7.087-5.643-8.556c-0.174-0.075-0.335-0.183-0.469-0.318L12.9,3.828
			C12.368,3.295,11.66,3.002,10.907,3.002z"/>
		<path id="path-3" d="M47.582,57.573c-3.805,0-6.9-3.098-6.9-6.905c0-3.807,3.095-6.904,6.9-6.904c3.804,0,6.899,3.097,6.899,6.904
			C54.481,54.475,51.386,57.573,47.582,57.573z M47.582,46.766c-2.151,0-3.9,1.751-3.9,3.902c0,2.152,1.749,3.902,3.9,3.902
			c2.15,0,3.899-1.75,3.899-3.902C51.481,48.517,49.732,46.766,47.582,46.766z"/>
		<path id="path-4" d="M15.185,57.573c-3.805,0-6.899-3.098-6.899-6.905c0-3.807,3.094-6.904,6.899-6.904s6.899,3.097,6.899,6.904
			C22.084,54.475,18.99,57.573,15.185,57.573z M15.185,46.766c-2.15,0-3.899,1.751-3.899,3.902c0,2.152,1.749,3.902,3.899,3.902
			s3.899-1.75,3.899-3.902C19.084,48.517,17.335,46.766,15.185,46.766z"/>
	</g>
</g>
<g>
</g>
<g>
</g>
<g>
</g>
<g>
</g>
<g>
</g>
<g>
</g>
<g>
</g>
<g>
</g>
<g>
</g>
<g>
</g>
<g>
</g>
<g>
</g>
<g>
</g>
<g>
</g>
<g>
</g>
</svg>
